<svg width="18" height="14" viewBox="0 0 18 14" fill="none" xmlns="http://www.w3.org/2000/svg">
<path d="M7.09085 12.9341C6.93418 13.0908 6.72252 13.1783 6.50168 13.1783C6.28085 13.1783 6.06835 13.0908 5.91252 12.9341L0.91252 7.93412C0.586686 7.60829 0.58752 7.08079 0.91252 6.75579L2.09085 5.57746C2.41669 5.25162 2.94419 5.25162 3.26919 5.57746L6.50168 8.80912L14.7342 0.577459C15.06 0.251626 15.5875 0.251626 15.9125 0.577459L17.0908 1.75579C17.4167 2.08162 17.4167 2.60913 17.0908 2.93413L7.09085 12.9341Z" fill="#FF6633"/>
<path d="M2.78637 7.9339C2.46053 7.60807 2.46137 7.08057 2.78637 6.75557L3.61637 5.92557L3.26803 5.57723C2.9422 5.2514 2.4147 5.2514 2.0897 5.57723L0.911367 6.75557C0.585534 7.0814 0.585534 7.6089 0.911367 7.9339L5.91137 12.9339C6.06804 13.0906 6.2797 13.1781 6.50054 13.1781C6.72137 13.1781 6.93387 13.0906 7.0897 12.9339L7.43804 12.5856L2.78637 7.9339Z" fill="black" fill-opacity="0.1"/>
</svg>
